<?xml version="1.0" encoding="UTF-8" standalone="no"?>
<!DOCTYPE svg PUBLIC "-//W3C//DTD SVG 1.1//EN" "http://www.w3.org/Graphics/SVG/1.1/DTD/svg11.dtd">
<svg width="100%" height="100%" viewBox="0 0 123 120" version="1.1" xmlns="http://www.w3.org/2000/svg" xmlns:xlink="http://www.w3.org/1999/xlink" xml:space="preserve" xmlns:serif="http://www.serif.com/" style="fill-rule:evenodd;clip-rule:evenodd;stroke-linejoin:round;stroke-miterlimit:2;">
    <g>
        <path d="M49.955,0L50.004,0L50.004,0.007C63.803,0.011 76.298,5.608 85.34,14.652C94.367,23.683 99.959,36.167 99.968,49.955L99.975,49.955L99.975,50.028L99.968,50.028C99.963,55.585 99.051,60.933 97.374,65.92C97.093,66.757 96.799,67.561 96.497,68.329L96.497,68.336C95.051,71.996 93.182,75.456 90.95,78.643L120.032,104.782L120.05,104.798L120.207,104.944L120.218,104.955C121.86,106.518 122.754,108.611 122.867,110.735C122.977,112.835 122.324,114.983 120.888,116.706L120.877,116.722L120.702,116.925L120.667,116.96L120.521,117.12L120.505,117.141C118.94,118.783 116.851,119.675 114.725,119.787C112.628,119.898 110.478,119.247 108.754,117.809L108.739,117.798L108.535,117.623L108.506,117.599L78.761,90.865C77.881,91.485 76.983,92.074 76.074,92.63C74.841,93.385 73.564,94.096 72.261,94.745C65.562,98.087 57.992,99.967 49.989,99.967L49.989,99.974L49.973,99.974L49.973,99.967C36.174,99.963 23.677,94.366 14.635,85.322C5.605,76.291 0.016,63.805 0.007,50.021L0,50.021L0,49.972L0.007,49.972C0.011,36.173 5.608,23.676 14.652,14.634C23.683,5.608 36.167,0.016 49.955,0.007L49.955,0ZM50.004,11.21L50.004,11.217L49.955,11.217L49.955,11.21C39.269,11.217 29.583,15.56 22.571,22.569C15.56,29.578 11.213,39.274 11.21,49.973L11.217,49.973L11.217,50.022L11.21,50.022C11.217,60.708 15.557,70.389 22.569,77.403C29.578,84.415 39.274,88.762 49.972,88.764L49.972,88.757L50.021,88.757L50.021,88.764C60.707,88.757 70.389,84.416 77.403,77.405C84.414,70.396 88.761,60.703 88.763,50.005L88.757,50.005L88.757,49.956L88.763,49.956C88.757,39.27 84.413,29.584 77.405,22.572C70.396,15.56 60.703,11.213 50.004,11.21Z" style="fill:rgb(0,145,235);fill-rule:nonzero;"/>
        <g transform="matrix(0.889957,0,0,0.889957,17.9845,14.2861)">
            <text x="9.627px" y="71.175px" style="font-family:'ArialMT', 'Arial', sans-serif;font-size:85.065px;fill:rgb(0,145,235);">B</text>
        </g>
    </g>
</svg>
