<svg xmlns="http://www.w3.org/2000/svg" viewBox="-105 -105 1260 1260"><defs><clipPath id="a"><path transform="matrix(1 0 0 -1 0 1050.75)" d="M.614.319h1050v1050H.614Z" fill-rule="evenodd"/></clipPath></defs><g clip-path="url(#a)"><path stroke-width="75" stroke-linecap="round" stroke-linejoin="round" fill="none" stroke="currentColor" d="M525.614 75.431v936.175"/><path d="M1050.61 100.864c0-55.434-45-100.434-100.429-100.434H101.047C45.617.43.614 45.43.614 100.864v849.134c0 55.43 45.003 100.433 100.433 100.433h849.134c55.429 0 100.429-45.003 100.429-100.433Zm-74.996 0v849.134c0 14.037-11.396 25.433-25.433 25.433H101.047c-14.037 0-25.433-11.396-25.433-25.433V100.864c0-14.037 11.396-25.433 25.433-25.433h849.134c14.037 0 25.433 11.396 25.433 25.433Z" fill-rule="evenodd"/><path stroke-width="75" stroke-linecap="round" stroke-linejoin="round" fill="none" stroke="currentColor" d="M158.114 307.931h225M158.114 525.431h225M158.114 742.931h225M653.114 307.931h225M653.114 525.431h225M653.114 742.931h225"/></g></svg>
