<svg xmlns="http://www.w3.org/2000/svg" viewBox="-105 -105 1260 1260"><defs><clipPath id="a"><path transform="matrix(1 0 0 -1 0 1050.75)" d="M0 0h1050v1050.75H0Z" fill-rule="evenodd"/></clipPath><clipPath id="b"><path transform="matrix(1 0 0 -1 0 1050.75)" d="M.002.319h1050v1050H.002Z" fill-rule="evenodd"/></clipPath></defs><g clip-path="url(#a)"><g clip-path="url(#b)" stroke-width="75" stroke-linecap="round" fill="none" stroke="currentColor"><path stroke-miterlimit="1.5" d="m516.734 1012.931-473.495-412.5M533.27 1012.931l473.49-412.5"/><path stroke-linejoin="round" d="M525.002 405.431c86.223 0 156.225 70.002 156.225 156.225s-70.002 156.225-156.225 156.225-156.225-70.002-156.225-156.225 70.002-156.225 156.225-156.225Z"/><path stroke-miterlimit="1.5" d="M525.002 1012.931V720.124"/><path stroke-linejoin="round" d="M525.002 45.43v105.001"/><path stroke-miterlimit="1.5" d="m1007.78 297.152-73.061 58.531"/><path stroke-linejoin="round" d="m808.769 127.163-62.557 89.157M241.235 127.163l62.557 89.157"/><path stroke-miterlimit="1.5" d="m42.22 297.152 73.064 58.531"/></g></g></svg>
