<svg xmlns="http://www.w3.org/2000/svg" viewBox="-105 -105 1260 1260"><defs><clipPath id="a"><path transform="matrix(1 0 0 -1 0 1050)" d="M.634 0h1050v1050H.634Z" fill-rule="evenodd"/></clipPath></defs><g clip-path="url(#a)" stroke-width="75" stroke-linecap="round" fill="none" stroke="currentColor"><path stroke-miterlimit="1.5" d="M690.634 53.592 95.63 525M684.185 59.25c50.101-49.18 107.473-6.147 85.868 50.98M770.053 110.23 360.634 750"/><path stroke-linejoin="round" d="M533.384 480.237c55.339-29.812 149.332 43.737 141.856 77.331M647.142 300c45.419-18.514 122.95 21.746 135.383 64.711"/><path stroke-miterlimit="1.5" d="M1013.26 152.417 895.984 855M1013 157.768c2.95-54.268-66.196-70.082-93.399-30.851M919.601 126.917 557.487 772.5"/><path stroke-linejoin="round" d="M213.784 478.536c96.778 0 175.35 78.572 175.35 175.35 0 96.778-78.572 175.35-175.35 175.35-96.778 0-175.35-78.572-175.35-175.35 0-96.778 78.572-175.35 175.35-175.35ZM720.634 661.5c96.778 0 175.35 78.572 175.35 175.35 0 96.778-78.572 175.35-175.35 175.35-96.778 0-175.35-78.572-175.35-175.35 0-96.778 78.572-175.35 175.35-175.35Z"/></g></svg>
