<svg xmlns="http://www.w3.org/2000/svg" viewBox="-105 -105 1260 1260"><defs><clipPath id="a"><path transform="matrix(1 0 0 -1 0 1050.75)" d="M.15.691h1050v1050H.15Z" fill-rule="evenodd"/></clipPath></defs><g clip-path="url(#a)" stroke-width="75" stroke-linecap="round" stroke-linejoin="round" fill="none" stroke="currentColor"><path d="M888.711 38.84c61.385-6.32 116.349 38.394 122.659 99.779 6.32 61.385-38.395 116.348-99.78 122.661-61.385 6.314-116.347-38.397-122.661-99.782-6.314-61.385 38.397-116.348 99.782-122.658ZM726.124 296.825 38.401 1011.27M726.124 296.825l11.737 240.519 237.29 20.841M390.442 289.674l156.366-139.615 179.316 146.766M521.887 561.08l198.264 233.979-255 150M210.151 292.463l-172.5-.32M315.151 157.47l-172.5-.327M285.151 427.505l-172.5-.362"/></g></svg>
